<?xml version="1.0" encoding="UTF-8"?>
<svg version="1.1" xmlns="http://www.w3.org/2000/svg" width="400" height="387">
<path d="M0 0 C132 0 264 0 400 0 C400 127.71 400 255.42 400 387 C268 387 136 387 0 387 C0 259.29 0 131.58 0 0 Z " fill="#FEFEFE" transform="translate(0,0)"/>
<path d="M0 0 C2.00087125 1.4407818 3.78748828 2.95949775 5.5859375 4.64453125 C6.50632813 5.44890625 6.50632813 5.44890625 7.4453125 6.26953125 C14.3640411 12.65604995 19.03030868 20.83807824 19.8046875 30.32421875 C20.17739729 42.28199126 16.96181916 51.43359494 11.27880859 61.72216797 C-1.21647804 84.51361106 -10.74408765 107.65090793 -3.4140625 133.64453125 C-0.37510476 142.67235075 3.94563249 152.06151396 10.80078125 158.83203125 C12.5859375 160.64453125 12.5859375 160.64453125 12.5859375 162.64453125 C13.2459375 162.64453125 13.9059375 162.64453125 14.5859375 162.64453125 C14.5859375 163.30453125 14.5859375 163.96453125 14.5859375 164.64453125 C15.48892578 165.05638672 15.48892578 165.05638672 16.41015625 165.4765625 C18.5859375 166.64453125 18.5859375 166.64453125 21.3984375 169.33203125 C36.2675324 182.27130745 56.56758605 184.29079091 75.3359375 183.70703125 C91.19483731 183.25341606 104.75355434 183.92550972 117.8359375 194.01953125 C125.41943207 201.25832152 129.93793448 210.64418628 130.7890625 221.15234375 C131.01842167 233.95823078 127.12453779 244.74916766 118.5234375 254.33203125 C108.80125538 263.46827829 98.01694573 265.99107182 85.12109375 265.85546875 C73.44602731 265.15883495 64.5328535 259.31844308 56.55859375 251.04296875 C52.65209502 246.29328514 49.70482793 240.92715191 46.5859375 235.64453125 C44.0964768 231.78467031 41.50604472 227.99344722 38.91796875 224.19921875 C38.37527344 223.39742187 37.83257812 222.595625 37.2734375 221.76953125 C36.78230469 221.05023438 36.29117188 220.3309375 35.78515625 219.58984375 C34.5859375 217.64453125 34.5859375 217.64453125 33.5859375 214.64453125 C32.9259375 214.64453125 32.2659375 214.64453125 31.5859375 214.64453125 C30.39323461 213.48590559 29.20579605 212.32132213 28.046875 211.12890625 C14.31176327 197.17344514 -2.92751134 191.4569049 -22.1640625 191.26953125 C-33.10808856 191.22288017 -42.27273793 192.59250368 -52.4140625 196.64453125 C-53.33832031 197.00546875 -54.26257813 197.36640625 -55.21484375 197.73828125 C-72.95368096 205.65993104 -84.66269666 220.60511416 -92.8515625 237.70703125 C-98.94026355 250.0738596 -107.45092873 259.34143107 -120.4140625 264.64453125 C-133.63327765 267.2921566 -145.35356721 266.08635312 -156.9765625 259.10546875 C-165.5786153 252.97360003 -172.99915403 242.7503597 -174.84448242 232.17871094 C-175.05684869 229.5901044 -175.1224644 227.05415248 -175.1015625 224.45703125 C-175.09648682 223.54228027 -175.09141113 222.6275293 -175.08618164 221.68505859 C-174.73625735 211.34002405 -171.11271068 203.35679424 -164.1015625 195.64453125 C-150.63967832 183.79807317 -135.78554407 183.20471189 -118.7265625 183.08203125 C-116.11776799 183.05805737 -113.50928901 183.02970322 -110.90068054 182.99024963 C-109.29126499 182.96633414 -107.68168478 182.95111943 -106.07209778 182.94664001 C-100.63599346 182.87194928 -95.67596727 181.97744311 -90.4140625 180.64453125 C-89.13982422 180.36222656 -89.13982422 180.36222656 -87.83984375 180.07421875 C-75.10994282 176.73291388 -64.40672434 169.03880712 -55.4140625 159.64453125 C-55.0840625 158.98453125 -54.7540625 158.32453125 -54.4140625 157.64453125 C-53.7540625 157.64453125 -53.0940625 157.64453125 -52.4140625 157.64453125 C-52.14207031 156.91234375 -51.87007813 156.18015625 -51.58984375 155.42578125 C-50.46641662 152.76837223 -49.16871497 150.55935195 -47.6015625 148.14453125 C-40.72455019 136.84538143 -36.44819914 123.94710384 -37.4140625 110.64453125 C-37.47078125 109.82210937 -37.5275 108.9996875 -37.5859375 108.15234375 C-39.50136991 92.05359036 -47.49093638 76.96001863 -55.140625 62.921875 C-62.16995605 49.93465161 -65.98052146 36.8743541 -62.61328125 22.140625 C-59.77649557 14.66359882 -55.18153825 9.10052312 -49.4140625 3.64453125 C-48.85976562 3.11988281 -48.30546875 2.59523438 -47.734375 2.0546875 C-34.83384446 -8.50320939 -13.98263009 -7.85108842 0 0 Z " fill="#009EE2" transform="translate(224.4140625,43.35546875)"/>
<path d="M0 0 C0 3.3 0 6.6 0 10 C-1.32 10 -2.64 10 -4 10 C-3.67 8.35 -3.34 6.7 -3 5 C-5.31 5 -7.62 5 -10 5 C-10 5.99 -10 6.98 -10 8 C-10.99 7.67 -11.98 7.34 -13 7 C-13.66 8.32 -14.32 9.64 -15 11 C-15.66 10.67 -16.32 10.34 -17 10 C-17.625 7.9375 -17.625 7.9375 -18 6 C-18 6.763125 -18 7.52625 -18 8.3125 C-18 10.20833333 -18 12.10416667 -18 14 C-18.99 14.66 -19.98 15.32 -21 16 C-21 12 -21 12 -20 9 C-20.99 9.33 -21.98 9.66 -23 10 C-23.33 9.67 -23.66 9.34 -24 9 C-24.66 9.66 -25.32 10.32 -26 11 C-27.11375 10.484375 -28.2275 9.96875 -29.375 9.4375 C-31.169375 8.7259375 -31.169375 8.7259375 -33 8 C-35.33075929 8.95865509 -35.33075929 8.95865509 -37 12 C-37.33 9.69 -37.66 7.38 -38 5 C-38.99 5.33 -39.98 5.66 -41 6 C-41.66 5.34 -42.32 4.68 -43 4 C-42.22922119 3.98018066 -41.45844238 3.96036133 -40.66430664 3.93994141 C-37.13006151 3.84395546 -33.59634883 3.73457671 -30.0625 3.625 C-28.24395508 3.57859375 -28.24395508 3.57859375 -26.38867188 3.53125 C-17.36571725 3.23782058 -8.6674126 0 0 0 Z " fill="#099EE0" transform="translate(141,223)"/>
<path d="M0 0 C2 2 2 2 3 4 C3.99 5.485 3.99 5.485 5 7 C4 10 4 10 2 11 C2.061875 12.546875 2.061875 12.546875 2.125 14.125 C2.00025762 17.9920139 1.76068151 20.55866797 0 24 C-3.125 25.375 -3.125 25.375 -6 26 C-6 24.02 -6 22.04 -6 20 C-6.66 20 -7.32 20 -8 20 C-8.33 21.32 -8.66 22.64 -9 24 C-9.99 24 -10.98 24 -12 24 C-13 21 -13 21 -12.08984375 19.1015625 C-11.73019531 18.40804687 -11.37054688 17.71453125 -11 17 C-10.68577014 14.66913039 -10.56231605 12.37142779 -10.44140625 10.0234375 C-10 8 -10 8 -7 6 C-6.74969023 3.41619823 -6.74969023 3.41619823 -7 1 C-4.65941363 3.12780579 -3.29299694 5.11562221 -2 8 C-1.34 5.36 -0.68 2.72 0 0 Z " fill="#009CD7" transform="translate(152,225)"/>
<path d="M0 0 C2.4294516 3.6441774 2.16179575 5.71241272 2 10 C2.66 9.67 3.32 9.34 4 9 C4.33 10.65 4.66 12.3 5 14 C4.34 14 3.68 14 3 14 C3.350625 14.845625 3.70125 15.69125 4.0625 16.5625 C5.12277509 20.45017533 4.78314872 23.08425639 4 27 C4.66 26.67 5.32 26.34 6 26 C6 25.01 6 24.02 6 23 C6.99 23.33 7.98 23.66 9 24 C8.67 25.32 8.34 26.64 8 28 C1.3259584 27.55197406 -6.04680381 26.95319619 -11 22 C-11 20.68 -11 19.36 -11 18 C-10.34 18 -9.68 18 -9 18 C-9 18.99 -9 19.98 -9 21 C-7.35 21.33 -5.7 21.66 -4 22 C-4.33 21.01 -4.66 20.02 -5 19 C-5.23828125 16.625 -5.23828125 16.625 -5.3125 14 C-5.36857422 12.700625 -5.36857422 12.700625 -5.42578125 11.375 C-5 9 -5 9 -2.98046875 7.1875 C-2.00013672 6.5996875 -2.00013672 6.5996875 -1 6 C-1.33 5.34 -1.66 4.68 -2 4 C-1.0625 1.875 -1.0625 1.875 0 0 Z " fill="#02A1EB" transform="translate(303,281)"/>
<path d="M0 0 C2.375 -0.125 2.375 -0.125 5 0 C9 4 9 4 9.125 7.125 C9.08375 8.07375 9.0425 9.0225 9 10 C6.525 9.01 6.525 9.01 4 8 C4.86577189 10.07721949 4.86577189 10.07721949 6.625 11.3125 C7.07875 11.869375 7.5325 12.42625 8 13 C7.814375 13.721875 7.62875 14.44375 7.4375 15.1875 C6.8515168 18.95453488 8.15922055 20.7986237 9.9921875 24.03515625 C11.03239928 26.06316605 11.70825837 27.73664961 12 30 C11.34 30.66 10.68 31.32 10 32 C10 30.35 10 28.7 10 27 C9.443125 26.87625 8.88625 26.7525 8.3125 26.625 C5.77885636 25.94023145 3.42078968 25.00866237 1 24 C0.8125 20.625 0.8125 20.625 1 17 C1.99 16.34 2.98 15.68 4 15 C3.34 13.68 2.68 12.36 2 11 C2 12.32 2 13.64 2 15 C-0.62113708 15 -2.50935112 14.68707555 -5 14 C-4.67 12.02 -4.34 10.04 -4 8 C-3.01 7.67 -2.02 7.34 -1 7 C-0.67 6.34 -0.34 5.68 0 5 C0.33 4.67 0.66 4.34 1 4 C0.34 4 -0.32 4 -1 4 C-0.67 2.68 -0.34 1.36 0 0 Z " fill="#009CD7" transform="translate(285,236)"/>
<path d="M0 0 C2.97 0.495 2.97 0.495 6 1 C5.67 1.99 5.34 2.98 5 4 C5.99 4.33 6.98 4.66 8 5 C8.6875 7.3125 8.6875 7.3125 9 10 C7.6875 11.8125 7.6875 11.8125 6 13 C5.34 13 4.68 13 4 13 C3.34 14.32 2.68 15.64 2 17 C2.66 17 3.32 17 4 17 C4.33 18.32 4.66 19.64 5 21 C4.34 20.67 3.68 20.34 3 20 C2.67 20.66 2.34 21.32 2 22 C2.66 22 3.32 22 4 22 C4.125 29.75 4.125 29.75 3 32 C2.34 32 1.68 32 1 32 C0.505 34.475 0.505 34.475 0 37 C-1.42331668 32.73004995 -1.42331668 29.26995005 0 25 C-0.31507217 22.8995333 -0.31507217 22.8995333 -0.9375 20.6875 C-2.31028793 14.92552619 -2.71838443 10.43676885 0 5 C0.66 4.34 1.32 3.68 2 3 C1.34 3 0.68 3 0 3 C0 2.01 0 1.02 0 0 Z " fill="#009EDE" transform="translate(320,228)"/>
<path d="M0 0 C1.72926874 0.31193464 3.45841044 0.62457362 5.1875 0.9375 C6.15042969 1.11152344 7.11335938 1.28554687 8.10546875 1.46484375 C10.74239972 1.9523735 13.3719905 2.46671105 16 3 C15.360625 3.61875 14.72125 4.2375 14.0625 4.875 C11.96116416 6.82597612 11.96116416 6.82597612 11 9 C12.65 9 14.3 9 16 9 C17.59157575 12.1831515 16.77242108 14.61323065 16 18 C14.125 19.8125 14.125 19.8125 12 21 C11.01 21.66 10.02 22.32 9 23 C8.34 21.35 7.68 19.7 7 18 C8.65 16.02 10.3 14.04 12 12 C11.01 12 10.02 12 9 12 C8.67 10.35 8.34 8.7 8 7 C5.08347826 6.83318891 5.08347826 6.83318891 2 7 C1.34 7.66 0.68 8.32 0 9 C0 6.03 0 3.06 0 0 Z " fill="#01A1DD" transform="translate(265,224)"/>
<path d="M0 0 C2 3 2 3 3 5 C3.66 4.01 4.32 3.02 5 2 C5 2.66 5 3.32 5 4 C6.32 3.67 7.64 3.34 9 3 C9.33 3.99 9.66 4.98 10 6 C10.66 6.66 11.32 7.32 12 8 C10.13412277 9.32543706 8.25685767 10.63485156 6.375 11.9375 C5.33085938 12.66839844 4.28671875 13.39929688 3.2109375 14.15234375 C-0.00598969 16.00344662 -2.33705863 16.65350555 -6 17 C-5.67 13.04 -5.34 9.08 -5 5 C-4.67 5 -4.34 5 -4 5 C-3.67 6.65 -3.34 8.3 -3 10 C-2.34 9.34 -1.68 8.68 -1 8 C-1.165 7.38125 -1.33 6.7625 -1.5 6.125 C-2.14106968 3.40045386 -1.41793887 2.33542872 0 0 Z " fill="#03A3EA" transform="translate(107,291)"/>
<path d="M0 0 C7.76699853 2.1359246 16.31816756 6.93101285 20.8125 13.75 C21.204375 14.4925 21.59625 15.235 22 16 C20.02 16 18.04 16 16 16 C15.7525 15.2575 15.505 14.515 15.25 13.75 C13.88708637 10.75159001 12.49904822 9.12040455 10 7 C9.01 6.67 8.02 6.34 7 6 C6.34 8.64 5.68 11.28 5 14 C2.13455817 10.76080489 1.65463711 8.20838141 1 4 C0.34 3.67 -0.32 3.34 -1 3 C-1.33 3.66 -1.66 4.32 -2 5 C-1.125 1.125 -1.125 1.125 0 0 Z " fill="#049FEB" transform="translate(326,229)"/>
<path d="M0 0 C0.33 1.32 0.66 2.64 1 4 C1.99 4 2.98 4 4 4 C6.60018816 7.90028225 6.15085514 11.47434569 6 16 C5.01 16.33 4.02 16.66 3 17 C1.33333333 15.33333333 -0.33333333 13.66666667 -2 12 C-2.78375 11.38125 -3.5675 10.7625 -4.375 10.125 C-6 8 -6 8 -5.75 4.25 C-5.5025 3.1775 -5.255 2.105 -5 1 C-4.34 2.32 -3.68 3.64 -3 5 C-2.01 3.35 -1.02 1.7 0 0 Z " fill="#019EF0" transform="translate(253,241)"/>
<path d="M0 0 C1 1 1 1 1.0625 3.5625 C1.041875 4.366875 1.02125 5.17125 1 6 C0.67 5.34 0.34 4.68 0 4 C-0.99 4 -1.98 4 -3 4 C-3.33 4.99 -3.66 5.98 -4 7 C-4.99 6.67 -5.98 6.34 -7 6 C-7.33 4.35 -7.66 2.7 -8 1 C-8.99 1 -9.98 1 -11 1 C-11.33 1.99 -11.66 2.98 -12 4 C-13.65 4 -15.3 4 -17 4 C-17 4.99 -17 5.98 -17 7 C-16.34 7.33 -15.68 7.66 -15 8 C-15.99 9.32 -16.98 10.64 -18 12 C-18.33 9.69 -18.66 7.38 -19 5 C-19.66 5 -20.32 5 -21 5 C-21.33 5.99 -21.66 6.98 -22 8 C-22 7.34 -22 6.68 -22 6 C-22.66 5.67 -23.32 5.34 -24 5 C-22.12855305 4.17934931 -20.25265664 3.3688416 -18.375 2.5625 C-17.33085938 2.11003906 -16.28671875 1.65757812 -15.2109375 1.19140625 C-9.83962761 -0.80159803 -5.59724111 -1.30168398 0 0 Z " fill="#0A9DDC" transform="translate(92,228)"/>
<path d="M0 0 C1.98 0 3.96 0 6 0 C6 0.66 6 1.32 6 2 C6.66 2.33 7.32 2.66 8 3 C8.625 5.0625 8.625 5.0625 9 7 C9.99 6.01 10.98 5.02 12 4 C12.33 5.65 12.66 7.3 13 9 C12.01 9.495 12.01 9.495 11 10 C10.67 10.99 10.34 11.98 10 13 C8.35 13.33 6.7 13.66 5 14 C4.87625 14.94875 4.7525 15.8975 4.625 16.875 C4 20 4 20 2 22 C2.66 17.71 3.32 13.42 4 9 C3.34 8.67 2.68 8.34 2 8 C2.99 8 3.98 8 5 8 C4.34 6.02 3.68 4.04 3 2 C2.01 2 1.02 2 0 2 C0 1.34 0 0.68 0 0 Z " fill="#009BD6" transform="translate(89,227)"/>
<path d="M0 0 C0.33 0.99 0.66 1.98 1 3 C1.99 3 2.98 3 4 3 C4 4.65 4 6.3 4 8 C5.32 7.34 6.64 6.68 8 6 C8 9.96 8 13.92 8 18 C7.67 18 7.34 18 7 18 C7 16.02 7 14.04 7 12 C6.34 11.67 5.68 11.34 5 11 C4.67 11.33 4.34 11.66 4 12 C3.01 12.66 2.02 13.32 1 14 C0.34 13.01 -0.32 12.02 -1 11 C-0.67 10.34 -0.34 9.68 0 9 C-0.99 9 -1.98 9 -3 9 C-3.36923077 3.46153846 -3.36923077 3.46153846 -1.5 1.125 C-1.005 0.75375 -0.51 0.3825 0 0 Z " fill="#0CA1E8" transform="translate(236,65)"/>
<path d="M0 0 C3 2 3 2 3.546875 4.42578125 C3.61390625 5.37839844 3.6809375 6.33101562 3.75 7.3125 C3.82734375 8.25738281 3.9046875 9.20226562 3.984375 10.17578125 C3.99967476 12.94121367 3.64476622 15.31835867 3 18 C-1.875 15.375 -1.875 15.375 -3 12 C-2.67 11.34 -2.34 10.68 -2 10 C-2.60760482 7.6505947 -3.27129528 5.31470912 -4 3 C-3.01 3 -2.02 3 -1 3 C-0.67 2.01 -0.34 1.02 0 0 Z " fill="#009ED7" transform="translate(243,230)"/>
<path d="M0 0 C0.99 0.33 1.98 0.66 3 1 C3.06058594 1.81984375 3.12117187 2.6396875 3.18359375 3.484375 C3.26738281 4.56203125 3.35117188 5.6396875 3.4375 6.75 C3.51871094 7.81734375 3.59992188 8.8846875 3.68359375 9.984375 C3.91152507 12.89708419 3.91152507 12.89708419 4.59375 15.25 C5.16293549 17.70187595 4.26895928 18.90994943 3 21 C2.01 20.67 1.02 20.34 0 20 C-0.8125 18.125 -0.8125 18.125 -1 16 C-0.34 15.01 0.32 14.02 1 13 C0.01 13 -0.98 13 -2 13 C-1.67 12.01 -1.34 11.02 -1 10 C-0.34 9.67 0.32 9.34 1 9 C0.67 8.34 0.34 7.68 0 7 C-0.99 7.66 -1.98 8.32 -3 9 C-2.5020163 5.26512223 -2.12508244 3.18762365 0 0 Z " fill="#029DD5" transform="translate(187,170)"/>
<path d="M0 0 C1.32 0 2.64 0 4 0 C4.39012425 1.76756294 4.7616098 3.53924783 5.125 5.3125 C5.33382813 6.29863281 5.54265625 7.28476563 5.7578125 8.30078125 C6 11 6 11 4 14 C3.01 14.495 3.01 14.495 2 15 C2.020625 14.030625 2.04125 13.06125 2.0625 12.0625 C2.35618499 9.12534105 2.35618499 9.12534105 1 8 C0.87625 8.763125 0.7525 9.52625 0.625 10.3125 C0 13 0 13 -2 16 C-3.13314263 11.89517207 -2.78328091 9.24049263 -1.5625 5.1875 C-1.27503906 4.21167969 -0.98757813 3.23585937 -0.69140625 2.23046875 C-0.46324219 1.49441406 -0.23507812 0.75835937 0 0 Z " fill="#00A1EF" transform="translate(308,228)"/>
<path d="M0 0 C0.66 0 1.32 0 2 0 C2.28875 0.61875 2.5775 1.2375 2.875 1.875 C4.46406122 4.87656008 6.15876045 6.1058403 9 8 C9.6875 11.625 9.6875 11.625 10 15 C8.35 15.66 6.7 16.32 5 17 C4.67 16.01 4.34 15.02 4 14 C2.2941742 11.22880216 2.2941742 11.22880216 1 10 C-0.11581454 6.65255638 -0.07965534 3.50483495 0 0 Z " fill="#009ED8" transform="translate(295,245)"/>
<path d="M0 0 C1.5 1.1875 1.5 1.1875 3 3 C3.1875 5.6875 3.1875 5.6875 3 8 C3.66 8 4.32 8 5 8 C5.66 6.02 6.32 4.04 7 2 C7.33 2 7.66 2 8 2 C8.21457149 5.14704859 8.33532369 7.34798172 6.875 10.1875 C5 12 5 12 2.08203125 12.390625 C1.00308594 12.34421875 -0.07585937 12.2978125 -1.1875 12.25 C-2.27417969 12.21390625 -3.36085937 12.1778125 -4.48046875 12.140625 C-5.72763672 12.07101563 -5.72763672 12.07101563 -7 12 C-7 11.67 -7 11.34 -7 11 C-3.535 10.505 -3.535 10.505 0 10 C-1.65 9.01 -3.3 8.02 -5 7 C-4.67 6.01 -4.34 5.02 -4 4 C-3.01 3.67 -2.02 3.34 -1 3 C-0.67 2.01 -0.34 1.02 0 0 Z " fill="#10A8ED" transform="translate(204,222)"/>
<path d="M0 0 C4 4.625 4 4.625 4 8 C4.94978897 10.15028304 4.94978897 10.15028304 6 12 C3.03 14.475 3.03 14.475 0 17 C-0.66 16.01 -1.32 15.02 -2 14 C-1.34 13.67 -0.68 13.34 0 13 C0.33 12.01 0.66 11.02 1 10 C0.01 10.33 -0.98 10.66 -2 11 C-2.66 10.34 -3.32 9.68 -4 9 C-3.625 5.375 -3.625 5.375 -3 2 C-2.67 2 -2.34 2 -2 2 C-1.34 3.98 -0.68 5.96 0 8 C-0.185625 7.236875 -0.37125 6.47375 -0.5625 5.6875 C-1 3 -1 3 0 0 Z " fill="#06A3ED" transform="translate(336,286)"/>
<path d="M0 0 C0.928125 0.165 1.85625 0.33 2.8125 0.5 C6.57485245 1.09017293 9.36490874 1.0027838 13 0 C12.4590069 3.78695173 10.96567536 5.62745972 8 8 C6.68 8 5.36 8 4 8 C3.34 8.66 2.68 9.32 2 10 C-1.07692308 4.58461538 -1.07692308 4.58461538 -0.6875 1.625 C-0.460625 1.08875 -0.23375 0.5525 0 0 Z " fill="#009FD8" transform="translate(138,250)"/>
<path d="M0 0 C1.26026798 2.52053595 0.91874445 3.8542098 0.5625 6.625 C0.46066406 7.44226563 0.35882813 8.25953125 0.25390625 9.1015625 C0.17011719 9.72804687 0.08632812 10.35453125 0 11 C-0.66 10.34 -1.32 9.68 -2 9 C-2.99 9.33 -3.98 9.66 -5 10 C-4.690625 11.11375 -4.690625 11.11375 -4.375 12.25 C-3.95591249 15.32330841 -4.38050989 16.42786866 -6 19 C-6.33 17.02 -6.66 15.04 -7 13 C-7.99 13 -8.98 13 -10 13 C-10.93423645 9.98968256 -11.04449911 9.13349732 -10 6 C-9.0925 6.12375 -8.185 6.2475 -7.25 6.375 C-6.1775 6.25125 -5.105 6.1275 -4 6 C-1.57577814 3.11490087 -1.57577814 3.11490087 0 0 Z " fill="#009ED6" transform="translate(214,144)"/>
<path d="M0 0 C2.1519437 3.22791555 2.20086443 4.28400809 2 8 C1.01 8.495 1.01 8.495 0 9 C-0.73075648 11.3140622 -1.40138258 13.64828869 -2 16 C-2.99 15.34 -3.98 14.68 -5 14 C-5.99 14 -6.98 14 -8 14 C-7.25 7.25 -7.25 7.25 -5 5 C-4.01 4.67 -3.02 4.34 -2 4 C-1.34 4.66 -0.68 5.32 0 6 C0 4.02 0 2.04 0 0 Z " fill="#00A3D5" transform="translate(332,280)"/>
<path d="M0 0 C0.99 0.33 1.98 0.66 3 1 C2.34 2.32 1.68 3.64 1 5 C1.33 5.33 1.66 5.66 2 6 C2 6.66 2 7.32 2 8 C2.66 8.33 3.32 8.66 4 9 C4.19392201 14.52677733 3.7479503 18.75614911 2 24 C0.99142408 20.34912187 0.67286687 16.7886352 0.37890625 13.0234375 C0.15584292 10.77925871 0.15584292 10.77925871 -2 9 C-2.26991906 6.31160615 -2.08737357 3.70858064 -2 1 C-1.34 0.67 -0.68 0.34 0 0 Z " fill="#00A5EE" transform="translate(218,119)"/>
<path d="M0 0 C0.99 0.33 1.98 0.66 3 1 C3.33951619 2.56116819 3.67132544 4.12401338 4 5.6875 C4.185625 6.55761719 4.37125 7.42773438 4.5625 8.32421875 C4.98972047 10.93712964 5.07616201 13.35813038 5 16 C2.525 15.01 2.525 15.01 0 14 C-1.125 7.25 -1.125 7.25 0 5 C-0.66 5 -1.32 5 -2 5 C-1.125 1.125 -1.125 1.125 0 0 Z " fill="#009CD7" transform="translate(102,237)"/>
<path d="M0 0 C0.61875 0.639375 1.2375 1.27875 1.875 1.9375 C3.82597612 4.03883584 3.82597612 4.03883584 6 5 C6 8.3 6 11.6 6 15 C4.68 15.33 3.36 15.66 2 16 C2.0928125 14.6696875 2.0928125 14.6696875 2.1875 13.3125 C2.25960984 9.97270362 2.25960984 9.97270362 0.4375 7.4375 C-1 5 -1 5 -0.6875 2.1875 C-0.460625 1.465625 -0.23375 0.74375 0 0 Z " fill="#009CDA" transform="translate(215,61)"/>
<path d="M0 0 C2.97 0 5.94 0 9 0 C8.01 0.495 8.01 0.495 7 1 C7.66 1.66 8.32 2.32 9 3 C9.66 2.67 10.32 2.34 11 2 C11 3.65 11 5.3 11 7 C10.67 6.34 10.34 5.68 10 5 C9.67 5.33 9.34 5.66 9 6 C9.42300983 9.73658685 9.98542905 13.37653234 11 17 C10.01 17 9.02 17 8 17 C7.855625 15.948125 7.71125 14.89625 7.5625 13.8125 C7.12473034 10.84539451 6.62195134 7.93205634 6 5 C5.34 5 4.68 5 4 5 C4 3.68 4 2.36 4 1 C3.01 1.99 2.02 2.98 1 4 C0.67 2.68 0.34 1.36 0 0 Z " fill="#009AD1" transform="translate(306,227)"/>
<path d="M0 0 C2 2 2 2 3 4 C3.99 5.485 3.99 5.485 5 7 C4 10 4 10 2 11 C2.04125 12.03125 2.0825 13.0625 2.125 14.125 C2.00424851 17.86829627 1.35127982 20.53734547 0 24 C-1.19713711 20.40858866 -1.13248902 17.47319892 -1.125 13.6875 C-1.12757813 12.39199219 -1.13015625 11.09648437 -1.1328125 9.76171875 C-1.01427685 6.40437077 -0.64302729 3.2916873 0 0 Z " fill="#009CD4" transform="translate(152,225)"/>
<path d="M0 0 C1.4606285 2.64738916 2 3.89448334 2 7 C2.66 7.33 3.32 7.66 4 8 C-0.875 12 -0.875 12 -2 12 C-2 10.35 -2 8.7 -2 7 C-3.98 7.99 -3.98 7.99 -6 9 C-6.33 8.67 -6.66 8.34 -7 8 C-7.66 8.99 -8.32 9.98 -9 11 C-9.125 8.125 -9.125 8.125 -9 5 C-8.34 4.34 -7.68 3.68 -7 3 C-6.67 3.66 -6.34 4.32 -6 5 C-5.01 5 -4.02 5 -3 5 C-1.28288757 2.55503957 -1.28288757 2.55503957 0 0 Z " fill="#00A0F2" transform="translate(81,237)"/>
<path d="M0 0 C0.33 0 0.66 0 1 0 C1.61187848 2.57948769 2.18972151 5.15927226 2.75 7.75 C2.92660156 8.47960937 3.10320312 9.20921875 3.28515625 9.9609375 C3.734375 12.109375 3.734375 12.109375 4 16 C2.078125 18.515625 2.078125 18.515625 0 20 C-1.79283851 12.62178 -2.15814639 7.31371832 0 0 Z " fill="#17A5EC" transform="translate(217,163)"/>
<path d="M0 0 C7.92 0 15.84 0 24 0 C24 0.33 24 0.66 24 1 C20.04 1 16.08 1 12 1 C11.67 2.32 11.34 3.64 11 5 C10.01 5 9.02 5 8 5 C7.01 6.485 7.01 6.485 6 8 C5.67 5.69 5.34 3.38 5 1 C4.01 1.33 3.02 1.66 2 2 C1.34 1.34 0.68 0.68 0 0 Z " fill="#2BABDF" transform="translate(98,227)"/>
<path d="M0 0 C1.32 0.99 2.64 1.98 4 3 C3.34580901 8.06998019 1.1453591 12.41990777 -1 17 C-3.81832513 15.59083743 -4.02593461 13.92219617 -5 11 C-5 10.01 -5 9.02 -5 8 C-3.35 8 -1.7 8 0 8 C0.98120464 4.94736336 0.98120464 3.05263664 0 0 Z " fill="#0BA0DA" transform="translate(227,109)"/>
<path d="M0 0 C0.66 0.66 1.32 1.32 2 2 C4.06874034 2.6425235 4.06874034 2.6425235 6 3 C5.67 3.99 5.34 4.98 5 6 C5.99 6.33 6.98 6.66 8 7 C7 10 7 10 5 11 C3.86649466 13.01669827 3.86649466 13.01669827 3 15 C2.79503906 14.30132812 2.59007812 13.60265625 2.37890625 12.8828125 C2.10949219 11.97273438 1.84007812 11.06265625 1.5625 10.125 C1.29566406 9.22007813 1.02882812 8.31515625 0.75390625 7.3828125 C0.07386174 5.01724619 0.07386174 5.01724619 -1 3 C-0.67 2.01 -0.34 1.02 0 0 Z " fill="#009FED" transform="translate(223,85)"/>
<path d="M0 0 C0.66 0.66 1.32 1.32 2 2 C1.77261307 8.2531407 1.77261307 8.2531407 -0.875 10.8125 C-1.57625 11.204375 -2.2775 11.59625 -3 12 C-3.99 12.66 -4.98 13.32 -6 14 C-6.66 12.35 -7.32 10.7 -8 9 C-6.38405168 6.95880212 -4.7143618 4.95927063 -3 3 C-2.34 3 -1.68 3 -1 3 C-0.67 2.01 -0.34 1.02 0 0 Z " fill="#009BD6" transform="translate(280,233)"/>
<path d="M0 0 C3.875 0.875 3.875 0.875 5 2 C5.04063832 3.66617115 5.042721 5.33388095 5 7 C4.01 7 3.02 7 2 7 C2.20625 7.5775 2.4125 8.155 2.625 8.75 C3.08661261 11.51967567 2.42944945 12.64561267 1 15 C-0.55078125 13.359375 -0.55078125 13.359375 -2 11 C-1.85546875 8.203125 -1.85546875 8.203125 -1.1875 5.25 C-0.86845703 3.77273437 -0.86845703 3.77273437 -0.54296875 2.265625 C-0.36378906 1.51796875 -0.18460938 0.7703125 0 0 Z " fill="#009FD4" transform="translate(189,56)"/>
<path d="M0 0 C2.34058637 2.12780579 3.70700306 4.11562221 5 7 C4.34 7.66 3.68 8.32 3 9 C1.98758315 10.32392972 0.98560611 11.65599167 0 13 C-2.64 12.67 -5.28 12.34 -8 12 C-7.525625 11.54625 -7.05125 11.0925 -6.5625 10.625 C-4.90972192 9.06741796 -4.90972192 9.06741796 -4 7 C-2.68 7.33 -1.36 7.66 0 8 C-0.2784375 6.2984375 -0.2784375 6.2984375 -0.5625 4.5625 C-0.706875 3.386875 -0.85125 2.21125 -1 1 C-0.67 0.67 -0.34 0.34 0 0 Z " fill="#01A1CD" transform="translate(87,296)"/>
<path d="M0 0 C0.12375 0.61875 0.2475 1.2375 0.375 1.875 C0.87197356 4.19120832 0.87197356 4.19120832 3 6 C4.32 6.33 5.64 6.66 7 7 C6.34 9.97 5.68 12.94 5 16 C2.5 14.1875 2.5 14.1875 0 12 C0 11.01 0 10.02 0 9 C-0.185625 7.824375 -0.37125 6.64875 -0.5625 5.4375 C-1 2 -1 2 0 0 Z " fill="#009DD3" transform="translate(281,265)"/>
<path d="M0 0 C2.39763185 2.39763185 2.34280586 3.33273498 2.625 6.625 C2.69976562 7.44226563 2.77453125 8.25953125 2.8515625 9.1015625 C2.92503906 10.04128906 2.92503906 10.04128906 3 11 C2.01 11.495 2.01 11.495 1 12 C1.33 13.32 1.66 14.64 2 16 C0.02 16.33 -1.96 16.66 -4 17 C-4.20086443 13.28400809 -4.1519437 12.22791555 -2 9 C-1.34 8.67 -0.68 8.34 0 8 C0 5.36 0 2.72 0 0 Z " fill="#009CD3" transform="translate(343,251)"/>
<path d="M0 0 C0.28875 0.61875 0.5775 1.2375 0.875 1.875 C1.93720042 4.13325765 1.93720042 4.13325765 4 6 C4.33 5.34 4.66 4.68 5 4 C5.99 4.33 6.98 4.66 8 5 C7.67 6.98 7.34 8.96 7 11 C4.39376858 10.64780657 2.39210885 10.23526531 0.125 8.875 C-1.67626472 5.87289213 -0.68453372 3.29820792 0 0 Z " fill="#06A2EF" transform="translate(248,242)"/>
<path d="M0 0 C2.61623814 4.36039691 3.30800296 8.93198011 2.5625 13.9375 C2.376875 14.618125 2.19125 15.29875 2 16 C1.67 14.68 1.34 13.36 1 12 C0.01 12.33 -0.98 12.66 -2 13 C-2.66 12.01 -3.32 11.02 -4 10 C-3.34 9.34 -2.68 8.68 -2 8 C-2.3185177 5.89179203 -2.3185177 5.89179203 -3 4 C-2.01 4 -1.02 4 0 4 C0 2.68 0 1.36 0 0 Z " fill="#009CEF" transform="translate(228,222)"/>
<path d="M0 0 C3.875 4.75 3.875 4.75 5 7 C5.66 6.67 6.32 6.34 7 6 C7.625 8.375 7.625 8.375 8 11 C7.34 11.66 6.68 12.32 6 13 C6 12.01 6 11.02 6 10 C4.02 10.33 2.04 10.66 0 11 C-0.19406478 9.35492782 -0.38007935 7.70890406 -0.5625 6.0625 C-0.66691406 5.14597656 -0.77132813 4.22945313 -0.87890625 3.28515625 C-0.91886719 2.53105469 -0.95882813 1.77695312 -1 1 C-0.67 0.67 -0.34 0.34 0 0 Z " fill="#009ED9" transform="translate(295,272)"/>
<path d="M0 0 C0.78375 0.495 1.5675 0.99 2.375 1.5 C4.78552327 3.16537965 4.78552327 3.16537965 7 3 C7.66 4.32 8.32 5.64 9 7 C5.7 7 2.4 7 -1 7 C-1.66 5.68 -2.32 4.36 -3 3 C-2.01 2.01 -1.02 1.02 0 0 Z " fill="#0099EF" transform="translate(196,226)"/>
<path d="M0 0 C0.763125 0.474375 1.52625 0.94875 2.3125 1.4375 C4.96410548 3.10106097 4.96410548 3.10106097 8 4 C7.17830062 7.40418314 6.10747484 10.67757548 5 14 C4.15973604 12.23244474 3.32801278 10.46082737 2.5 8.6875 C2.0359375 7.70136719 1.571875 6.71523437 1.09375 5.69921875 C0 3 0 3 0 0 Z " fill="#0AA1DC" transform="translate(171,106)"/>
<path d="M0 0 C3 2 3 2 4 5 C4.99 5 5.98 5 7 5 C6.01 6.485 6.01 6.485 5 8 C4.34 7.67 3.68 7.34 3 7 C2.67 8.32 2.34 9.64 2 11 C1.01 11 0.02 11 -1 11 C-1.33 8.03 -1.66 5.06 -2 2 C-1.34 2 -0.68 2 0 2 C0 1.34 0 0.68 0 0 Z " fill="#00A1EE" transform="translate(188,44)"/>
<path d="M0 0 C4.23835848 0.48904136 7.09902069 3.06651672 10 6 C11.875 8.8125 11.875 8.8125 13 11 C11.02 11 9.04 11 7 11 C6.62875 9.88625 6.62875 9.88625 6.25 8.75 C4.9016807 5.78369755 3.35816151 4.20602206 1 2 C0.67 1.34 0.34 0.68 0 0 Z " fill="#0DA2DA" transform="translate(335,234)"/>
<path d="M0 0 C1.65 1.65 3.3 3.3 5 5 C4.01 5 3.02 5 2 5 C2 6.65 2 8.3 2 10 C1.236875 9.525625 0.47375 9.05125 -0.3125 8.5625 C-2.96410548 6.89893903 -2.96410548 6.89893903 -6 6 C-5.34 4.68 -4.68 3.36 -4 2 C-3.01 2 -2.02 2 -1 2 C-0.67 1.34 -0.34 0.68 0 0 Z " fill="#009CD6" transform="translate(230,49)"/>
<path d="M0 0 C0.66 0 1.32 0 2 0 C2.33 0.66 2.66 1.32 3 2 C3.66 1.67 4.32 1.34 5 1 C6.36118461 3.24195113 7.06138028 4.47826762 6.75 7.125 C6 9 6 9 4 11 C3.34 11 2.68 11 2 11 C0.19769832 7.17010894 -0.19622241 4.21878192 0 0 Z " fill="#00A1F0" transform="translate(344,251)"/>
<path d="M0 0 C0.66 0 1.32 0 2 0 C3.29243536 4.1196377 4.26252625 7.66831683 4 12 C3.01 12.495 3.01 12.495 2 13 C2.20625 13.9075 2.4125 14.815 2.625 15.75 C3.02486177 19.21546863 2.65475295 20.09470856 1 23 C0.32546899 15.31516461 -0.1567564 7.71589817 0 0 Z " fill="#009AD2" transform="translate(124,245)"/>
<path d="M0 0 C1.98362069 2.91708924 1.9876191 4.12380904 1.625 7.75 C1.41875 8.8225 1.2125 9.895 1 11 C1.66 10.67 2.32 10.34 3 10 C3 9.01 3 8.02 3 7 C3.99 7.33 4.98 7.66 6 8 C5.67 9.32 5.34 10.64 5 12 C2.36 11.67 -0.28 11.34 -3 11 C-2.53199289 6.94393835 -2.12046792 3.53411321 0 0 Z " fill="#03A5EF" transform="translate(306,297)"/>
<path d="M0 0 C0.33 0 0.66 0 1 0 C1.33 1.65 1.66 3.3 2 5 C2.99 5 3.98 5 5 5 C4.67 6.32 4.34 7.64 4 9 C4.66 9.33 5.32 9.66 6 10 C3.35261084 11.4606285 2.10551666 12 -1 12 C-0.67 8.04 -0.34 4.08 0 0 Z " fill="#0FA2E9" transform="translate(102,296)"/>
<path d="M0 0 C1.98 0.495 1.98 0.495 4 1 C4.54372951 4.05847848 5 6.88772805 5 10 C4.34 10 3.68 10 3 10 C2.34 11.98 1.68 13.96 1 16 C0.34 15.34 -0.32 14.68 -1 14 C-0.34 12.02 0.32 10.04 1 8 C0.67 7.67 0.34 7.34 0 7 C-0.04092937 4.66702567 -0.04241723 2.33294775 0 0 Z " fill="#009FD4" transform="translate(194,129)"/>
<path d="M0 0 C1.98 0 3.96 0 6 0 C7.0257259 4.41062136 7.03684712 6.92630576 5 11 C4.34 11 3.68 11 3 11 C3.33 9.35 3.66 7.7 4 6 C3.01 5.67 2.02 5.34 1 5 C0.67 3.35 0.34 1.7 0 0 Z " fill="#019BE0" transform="translate(218,122)"/>
<path d="M0 0 C2.12508244 3.18762365 2.5020163 5.26512223 3 9 C2.01 9.66 1.02 10.32 0 11 C-2.09749995 8.64031256 -2.96905704 7.45383006 -3.1875 4.25 C-3.125625 3.5075 -3.06375 2.765 -3 2 C-2.01 2.495 -2.01 2.495 -1 3 C-0.67 2.01 -0.34 1.02 0 0 Z " fill="#00A0EC" transform="translate(128,254)"/>
<path d="M0 0 C2 2 2 2 2 5 C2.66 5 3.32 5 4 5 C4.99 8.3 5.98 11.6 7 15 C6.01 15.495 6.01 15.495 5 16 C4.18325204 14.25197854 3.37176549 12.50149811 2.5625 10.75 C2.11003906 9.77546875 1.65757812 8.8009375 1.19140625 7.796875 C0.21353811 5.50128945 -0.59985049 3.45725612 -1 1 C-0.67 0.67 -0.34 0.34 0 0 Z " fill="#0EA2E8" transform="translate(163,88)"/>
<path d="M0 0 C2.0625 0.4375 2.0625 0.4375 4 1 C3.34 2.65 2.68 4.3 2 6 C2.66 6 3.32 6 4 6 C3.67 7.98 3.34 9.96 3 12 C1.68 12.33 0.36 12.66 -1 13 C-1.33 12.34 -1.66 11.68 -2 11 C-1.0625 8.875 -1.0625 8.875 0 7 C-0.66 6.01 -1.32 5.02 -2 4 C-1 1 -1 1 0 0 Z " fill="#009CD1" transform="translate(169,73)"/>
<path d="M0 0 C0.33 0 0.66 0 1 0 C1.1953125 2.05078125 1.390625 4.1015625 1.5859375 6.15234375 C1.72257813 6.76207031 1.85921875 7.37179688 2 8 C2.66 8.33 3.32 8.66 4 9 C3.01 10.485 3.01 10.485 2 12 C-1.74278215 10.5511811 -1.74278215 10.5511811 -2.875 8.125 C-3.02970669 5.4949862 -2.34109804 4.23516341 -1 2 C-0.67 1.34 -0.34 0.68 0 0 Z " fill="#00A1EC" transform="translate(203,175)"/>
<path d="M0 0 C3.58333333 7.16666667 3.58333333 7.16666667 4 10 C3.0625 12.25 3.0625 12.25 2 14 C1.67 12.68 1.34 11.36 1 10 C0.34 10.66 -0.32 11.32 -1 12 C-2.42857143 3.42857143 -2.42857143 3.42857143 0 0 Z " fill="#00A0F2" transform="translate(169,209)"/>
<path d="M0 0 C0.99 0.33 1.98 0.66 3 1 C4.1875 3.5625 4.1875 3.5625 5 6 C2.35261084 7.4606285 1.10551666 8 -2 8 C-2.33 6.35 -2.66 4.7 -3 3 C-2.01 2.34 -1.02 1.68 0 1 C0 0.67 0 0.34 0 0 Z " fill="#0EA4EC" transform="translate(325,300)"/>
<path d="M0 0 C1.32 0.33 2.64 0.66 4 1 C5 3 5 3 6 6 C4.68 5.67 3.36 5.34 2 5 C2.66 5.66 3.32 6.32 4 7 C4.66 7 5.32 7 6 7 C5.67 8.32 5.34 9.64 5 11 C3.68 11 2.36 11 1 11 C0.67 7.37 0.34 3.74 0 0 Z " fill="#0098D4" transform="translate(336,248)"/>
<path d="M0 0 C0.66 0.66 1.32 1.32 2 2 C2.99 2.33 3.98 2.66 5 3 C2.89381685 5.94865641 0.60608273 8.4837822 -2 11 C-3.32 10.01 -4.64 9.02 -6 8 C-5.67 7.01 -5.34 6.02 -5 5 C-2.9375 4.3125 -2.9375 4.3125 -1 4 C-0.67 2.68 -0.34 1.36 0 0 Z " fill="#00A1F2" transform="translate(159,221)"/>
<path d="M0 0 C0.66 0 1.32 0 2 0 C2.66 1.65 3.32 3.3 4 5 C3.01 5.33 2.02 5.66 1 6 C0.67 7.98 0.34 9.96 0 12 C-1.32 12.33 -2.64 12.66 -4 13 C-3.67 12.01 -3.34 11.02 -3 10 C-3 9.34 -3 8.68 -3 8 C-2.41211866 5.0605933 -1.41368085 2.63887092 0 0 Z " fill="#009AD3" transform="translate(164,211)"/>
<path d="M0 0 C2 1 2 1 3 2 C3.14115161 4.67058851 3.04247107 7.32432238 3 10 C1.02 9.01 -0.96 8.02 -3 7 C-2.38722388 4.03824877 -1.74627478 2.61941217 0 0 Z " fill="#009EDA" transform="translate(240,75)"/>
<path d="M0 0 C0.33 0.66 0.66 1.32 1 2 C2.32 1.67 3.64 1.34 5 1 C5.625 3.375 5.625 3.375 6 6 C5.34 6.66 4.68 7.32 4 8 C3.01 7.67 2.02 7.34 1 7 C1.20625 7.78375 1.4125 8.5675 1.625 9.375 C1.810625 10.674375 1.810625 10.674375 2 12 C1.34 12.66 0.68 13.32 0 14 C-0.77916092 8.97874074 -1.13016601 5.02296004 0 0 Z " fill="#009CD1" transform="translate(131,236)"/>
<path d="M0 0 C4.41511711 3.60180606 5.749664 6.46496126 6.93359375 12.01171875 C6.95550781 12.66785156 6.97742188 13.32398438 7 14 C6.34 14.66 5.68 15.32 5 16 C4 13 3 10 2 7 C1.34 7 0.68 7 0 7 C0 4.69 0 2.38 0 0 Z " fill="#00A4F3" transform="translate(229,200)"/>
<path d="M0 0 C2.32490278 3.63266059 2.39259107 6.76001646 2 11 C1.01 11.66 0.02 12.32 -1 13 C-1.3449145 11.66961551 -1.67516582 10.33542939 -2 9 C-2.3403125 7.700625 -2.3403125 7.700625 -2.6875 6.375 C-2.790625 5.59125 -2.89375 4.8075 -3 4 C-2.34 3.34 -1.68 2.68 -1 2 C-0.67 1.34 -0.34 0.68 0 0 Z " fill="#019BD5" transform="translate(303,295)"/>
<path d="M0 0 C0.99 0.33 1.98 0.66 3 1 C3 1.99 3 2.98 3 4 C4.32 3.67 5.64 3.34 7 3 C6.814375 3.7425 6.62875 4.485 6.4375 5.25 C6.00796892 7.94990963 6.14877026 9.44631077 7 12 C6.34 12 5.68 12 5 12 C4.15885829 10.56705502 3.32734313 9.12845595 2.5 7.6875 C1.80390625 6.48673828 1.80390625 6.48673828 1.09375 5.26171875 C0 3 0 3 0 0 Z " fill="#10A7E2" transform="translate(264,265)"/>
<path d="M0 0 C2 3 2 3 3 6 C2.34 6.66 1.68 7.32 1 8 C0.3574765 10.06874034 0.3574765 10.06874034 0 12 C-0.99 12 -1.98 12 -3 12 C-3 3 -3 3 0 0 Z " fill="#009EF1" transform="translate(200,166)"/>
<path d="M0 0 C0.53625 0.226875 1.0725 0.45375 1.625 0.6875 C0.635 1.0175 -0.355 1.3475 -1.375 1.6875 C-1.375 2.6775 -1.375 3.6675 -1.375 4.6875 C-0.715 5.0175 -0.055 5.3475 0.625 5.6875 C-0.365 7.0075 -1.355 8.3275 -2.375 9.6875 C-2.705 7.3775 -3.035 5.0675 -3.375 2.6875 C-4.035 2.6875 -4.695 2.6875 -5.375 2.6875 C-5.705 3.6775 -6.035 4.6675 -6.375 5.6875 C-6.375 5.0275 -6.375 4.3675 -6.375 3.6875 C-7.035 3.3575 -7.695 3.0275 -8.375 2.6875 C-2.95961538 -0.38942308 -2.95961538 -0.38942308 0 0 Z " fill="#14A8E7" transform="translate(76.375,230.3125)"/>
<path d="M0 0 C2 3 2 3 2 5 C3.32 4.67 4.64 4.34 6 4 C6.33 5.32 6.66 6.64 7 8 C6.67 7.34 6.34 6.68 6 6 C5.67 6.66 5.34 7.32 5 8 C4.34 8 3.68 8 3 8 C2.67 8.99 2.34 9.98 2 11 C0.4375 9.4375 0.4375 9.4375 -1 7 C-0.6875 3.25 -0.6875 3.25 0 0 Z " fill="#009DF1" transform="translate(203,128)"/>
<path d="M0 0 C1.485 0.99 1.485 0.99 3 2 C2.79375 2.515625 2.5875 3.03125 2.375 3.5625 C1.84112974 7.03265671 2.92323239 9.70635791 4 13 C3.01 13.33 2.02 13.66 1 14 C-1.38297872 5.21276596 -1.38297872 5.21276596 -1 1 C-0.67 0.67 -0.34 0.34 0 0 Z " fill="#00A1EE" transform="translate(200,98)"/>
<path d="M0 0 C0.66 0.66 1.32 1.32 2 2 C2.33 1.67 2.66 1.34 3 1 C4.32594105 0.63837971 5.65938457 0.30271961 7 0 C6.814375 0.763125 6.62875 1.52625 6.4375 2.3125 C5.77180827 5.08967375 5.77180827 5.08967375 7 8 C4.03824877 7.38722388 2.61941217 6.74627478 0 5 C-0.1875 2.375 -0.1875 2.375 0 0 Z " fill="#0197D7" transform="translate(65,295)"/>
<path d="M0 0 C3.33773709 3.64116773 3.97864902 7.28607242 5 12 C4.34 12 3.68 12 3 12 C2.67 12.66 2.34 13.32 2 14 C1.87625 13.195625 1.7525 12.39125 1.625 11.5625 C1.315625 10.2940625 1.315625 10.2940625 1 9 C0.34 8.67 -0.32 8.34 -1 8 C-0.67 5.36 -0.34 2.72 0 0 Z " fill="#00A2EF" transform="translate(277,263)"/>
<path d="M0 0 C2 2 2 2 2.25 4.5 C2 7 2 7 0 9 C-0.64767793 11.57061311 -0.64767793 11.57061311 -1 14 C-3 12 -3 12 -3.25 9.5625 C-3 7 -3 7 -1 4 C-0.36707617 1.88719655 -0.36707617 1.88719655 0 0 Z " fill="#009CD5" transform="translate(69,252)"/>
<path d="M0 0 C0.33 0.66 0.66 1.32 1 2 C-1.31 4.97 -3.62 7.94 -6 11 C-6.66 10.34 -7.32 9.68 -8 9 C-7.625 6.875 -7.625 6.875 -7 5 C-6.67 5.66 -6.34 6.32 -6 7 C-5.67 6.01 -5.34 5.02 -5 4 C-4.34 4 -3.68 4 -3 4 C-3 3.34 -3 2.68 -3 2 C-2.01 1.34 -1.02 0.68 0 0 Z " fill="#08A1DE" transform="translate(126,287)"/>
<path d="M0 0 C0.81766395 2.45299186 1.02627816 3.87189398 0.5 6.4375 C-0.05526792 9.2832481 0.28409249 11.21591523 1 14 C0.01 14 -0.98 14 -2 14 C-3.00488128 8.97559361 -3.02945024 5.73538389 -1 1 C-0.67 0.67 -0.34 0.34 0 0 Z " fill="#009BD4" transform="translate(91,269)"/>
<path d="M0 0 C1.32 1.65 2.64 3.3 4 5 C3.01 6.485 3.01 6.485 2 8 C1.01 7.34 0.02 6.68 -1 6 C-1 7.65 -1 9.3 -1 11 C-1.99 10.34 -2.98 9.68 -4 9 C-3.67 7.02 -3.34 5.04 -3 3 C-2.01 3.33 -1.02 3.66 0 4 C0 2.68 0 1.36 0 0 Z " fill="#00A4EE" transform="translate(57,263)"/>
<path d="M0 0 C0.99 1.32 1.98 2.64 3 4 C3.66 3.01 4.32 2.02 5 1 C6.83691257 4.78187881 7.15837626 6.94568308 6 11 C5.71125 10.360625 5.4225 9.72125 5.125 9.0625 C4.17176549 6.84793921 4.17176549 6.84793921 2 6 C1.67 6.66 1.34 7.32 1 8 C0.26919734 6.02253397 -0.39421747 4.01927511 -1 2 C-0.67 1.34 -0.34 0.68 0 0 Z " fill="#00A1F1" transform="translate(174,103)"/>
<path d="M0 0 C0.99 0.66 1.98 1.32 3 2 C2.67 4.97 2.34 7.94 2 11 C0.68 11.33 -0.64 11.66 -2 12 C-2 10.35 -2 8.7 -2 7 C-1.01 6.67 -0.02 6.34 1 6 C0.34 5.67 -0.32 5.34 -1 5 C-0.67 3.35 -0.34 1.7 0 0 Z " fill="#009DD2" transform="translate(213,70)"/>
<path d="M0 0 C0.99 0 1.98 0 3 0 C3.66 1.32 4.32 2.64 5 4 C5.66 3.34 6.32 2.68 7 2 C7.33 3.32 7.66 4.64 8 6 C7.01 6.495 7.01 6.495 6 7 C5.34 6.67 4.68 6.34 4 6 C3.67 6.66 3.34 7.32 3 8 C3 7.34 3 6.68 3 6 C1.68 5.34 0.36 4.68 -1 4 C-0.67 2.68 -0.34 1.36 0 0 Z " fill="#009DF1" transform="translate(176,61)"/>
<path d="M0 0 C1.65 0 3.3 0 5 0 C4.44271087 3.34373475 3.64826111 6.03312999 2 9 C1.34 8.34 0.68 7.68 0 7 C0 4.66666667 0 2.33333333 0 0 Z " fill="#019ED8" transform="translate(277,281)"/>
<path d="M0 0 C1.96733733 3.5657989 2 5.93941676 2 10 C0.68 9.01 -0.64 8.02 -2 7 C-2.66 7.66 -3.32 8.32 -4 9 C-4.625 7.125 -4.625 7.125 -5 5 C-4.34 4.34 -3.68 3.68 -3 3 C-2.34 3 -1.68 3 -1 3 C-0.67 2.01 -0.34 1.02 0 0 Z " fill="#009EF2" transform="translate(61,253)"/>
<path d="M0 0 C2 3 2 3 1.625 5.6875 C1.41875 6.450625 1.2125 7.21375 1 8 C0.01 8 -0.98 8 -2 8 C-2.66 8.66 -3.32 9.32 -4 10 C-3.67 7.69 -3.34 5.38 -3 3 C-2.01 2.67 -1.02 2.34 0 2 C0 1.34 0 0.68 0 0 Z " fill="#16A4E9" transform="translate(54,252)"/>
<path d="M0 0 C2.97 1.98 2.97 1.98 6 4 C5.01 4.495 5.01 4.495 4 5 C3.67 5.66 3.34 6.32 3 7 C2.34 6.67 1.68 6.34 1 6 C0.34 7.32 -0.32 8.64 -1 10 C-2.23076923 4.58461538 -2.23076923 4.58461538 -1.0625 1.625 C-0.5365625 0.820625 -0.5365625 0.820625 0 0 Z " fill="#009BF0" transform="translate(336,235)"/>
<path d="M0 0 C2.97 0.495 2.97 0.495 6 1 C5.34 2.65 4.68 4.3 4 6 C3.01 6 2.02 6 1 6 C1.20625 6.94875 1.4125 7.8975 1.625 8.875 C1.74875 9.90625 1.8725 10.9375 2 12 C1.34 12.66 0.68 13.32 0 14 C-0.83759564 10.64961743 -1.24052591 8.2704774 0 5 C0.66 4.34 1.32 3.68 2 3 C1.34 3 0.68 3 0 3 C0 2.01 0 1.02 0 0 Z " fill="#039BD3" transform="translate(320,228)"/>
<path d="M0 0 C0.99 0.66 1.98 1.32 3 2 C3.1875 4.625 3.1875 4.625 3 7 C2.01 7 1.02 7 0 7 C-0.33 7.66 -0.66 8.32 -1 9 C-1.66 9 -2.32 9 -3 9 C-3 9.66 -3 10.32 -3 11 C-3.66 11 -4.32 11 -5 11 C-4.39816251 8.97954558 -3.72693904 6.97888961 -3 5 C-2.34 4.67 -1.68 4.34 -1 4 C-0.34786708 1.97536745 -0.34786708 1.97536745 0 0 Z " fill="#0CA4EB" transform="translate(186,174)"/>
<path d="M0 0 C0.625 2.875 0.625 2.875 1 6 C0.34 6.66 -0.32 7.32 -1 8 C-4 7 -4 7 -6 4 C-2.25 0 -2.25 0 0 0 Z " fill="#059FDA" transform="translate(177,47)"/>
<path d="M0 0 C1.32 0.33 2.64 0.66 4 1 C4.25 8.625 4.25 8.625 2 12 C0.13110719 8.15227951 -0.00124921 6.11624675 1 2 C0.67 1.34 0.34 0.68 0 0 Z " fill="#00A4EC" transform="translate(146,236)"/>
<path d="M0 0 C2.95012857 1.36970255 5.5652222 2.82609125 8 5 C8 5.99 8 6.98 8 8 C7.01 8 6.02 8 5 8 C4.34 7.34 3.68 6.68 3 6 C2.01 5.67 1.02 5.34 0 5 C0 3.35 0 1.7 0 0 Z " fill="#10A5E1" transform="translate(239,208)"/>
<path d="M0 0 C3.25666272 0.56149357 4.95623323 1.37229986 7 4 C7.8125 6 7.8125 6 8 8 C7.01 9.485 7.01 9.485 6 11 C6 10.01 6 9.02 6 8 C5.34 8 4.68 8 4 8 C2.66666667 5.33333333 1.33333333 2.66666667 0 0 Z " fill="#009FF0" transform="translate(215,87)"/>
<path d="M0 0 C0.33 0.66 0.66 1.32 1 2 C1.99 2 2.98 2 4 2 C3.67 3.32 3.34 4.64 3 6 C1.02 6.33 -0.96 6.66 -3 7 C-2.38722388 4.03824877 -1.74627478 2.61941217 0 0 Z " fill="#019CDB" transform="translate(109,298)"/>
<path d="M0 0 C1.485 0.99 1.485 0.99 3 2 C3 3.32 3 4.64 3 6 C3.66 6.33 4.32 6.66 5 7 C2.25 10.875 2.25 10.875 0 12 C0.185625 11.13375 0.37125 10.2675 0.5625 9.375 C1.00667933 5.94847372 0.71954492 3.35787629 0 0 Z " fill="#00A3EE" transform="translate(177,223)"/>
<path d="M0 0 C1.5 1 1.5 1 3 3 C3.27345479 5.71846235 3.13491285 8.25677199 3 11 C2.34 11 1.68 11 1 11 C0.63743142 9.5437328 0.28520207 8.08488815 -0.0625 6.625 C-0.35833984 5.40683594 -0.35833984 5.40683594 -0.66015625 4.1640625 C-1 2 -1 2 0 0 Z " fill="#009CEA" transform="translate(177,112)"/>
<path d="M0 0 C2 3 2 3 3 6 C2.67 6.99 2.34 7.98 2 9 C1.01 9 0.02 9 -1 9 C-1.625 5.625 -1.625 5.625 -2 2 C-1.34 1.34 -0.68 0.68 0 0 Z " fill="#009DD7" transform="translate(320,288)"/>
<path d="M0 0 C0.33 0 0.66 0 1 0 C1 1.65 1 3.3 1 5 C1.99 5 2.98 5 4 5 C4.33 4.01 4.66 3.02 5 2 C5.33 2.66 5.66 3.32 6 4 C5.01 5.485 5.01 5.485 4 7 C3.34 6.67 2.68 6.34 2 6 C1.67 7.32 1.34 8.64 1 10 C0.34 10 -0.32 10 -1 10 C-0.67 6.7 -0.34 3.4 0 0 Z " fill="#0098D3" transform="translate(160,235)"/>
<path d="M0 0 C1.98 0.99 1.98 0.99 4 2 C4 2.66 4 3.32 4 4 C4.66 4.33 5.32 4.66 6 5 C5.34 5.66 4.68 6.32 4 7 C3.34 7 2.68 7 2 7 C1.34 7.66 0.68 8.32 0 9 C0 6.03 0 3.06 0 0 Z " fill="#009BD9" transform="translate(265,224)"/>
<path d="M0 0 C2 1 2 1 2.75 2.9375 C2.8325 3.618125 2.915 4.29875 3 5 C2.34 5.66 1.68 6.32 1 7 C0.67 6.67 0.34 6.34 0 6 C-0.66 7.32 -1.32 8.64 -2 10 C-3.06351675 6.61608307 -3.21442982 5.4195366 -1.5625 2.1875 C-1.046875 1.465625 -0.53125 0.74375 0 0 Z " fill="#009EF0" transform="translate(311,293)"/>
<path d="M0 0 C0.33 0 0.66 0 1 0 C1.05416188 1.60379341 1.09286638 3.20811406 1.125 4.8125 C1.14820312 5.70582031 1.17140625 6.59914063 1.1953125 7.51953125 C1 10 1 10 -1 13 C-1.309375 11.906875 -1.61875 10.81375 -1.9375 9.6875 C-2.58337897 7.44592006 -3.2623117 5.2130649 -4 3 C-3.01 3 -2.02 3 -1 3 C-0.67 2.01 -0.34 1.02 0 0 Z " fill="#009EF2" transform="translate(79,271)"/>
<path d="M0 0 C1.5625 1.75 1.5625 1.75 3 4 C2.6875 6.25 2.6875 6.25 2 8 C0.68 7.67 -0.64 7.34 -2 7 C-1.125 1.125 -1.125 1.125 0 0 Z " fill="#0099DA" transform="translate(318,269)"/>
<path d="M0 0 C2 2 2 2 2.125 4.625 C2.08375 5.40875 2.0425 6.1925 2 7 C0.68 7.33 -0.64 7.66 -2 8 C-2.6875 5.6875 -2.6875 5.6875 -3 3 C-1.5625 1.1875 -1.5625 1.1875 0 0 Z " fill="#00A3DE" transform="translate(123,248)"/>
<path d="M0 0 C1.1577506 3.47325181 1.06866652 6.36067448 1 10 C-0.32 10.33 -1.64 10.66 -3 11 C-3.625 7.625 -3.625 7.625 -4 4 C-2.66666667 2.66666667 -1.33333333 1.33333333 0 0 Z " fill="#009ECE" transform="translate(83,231)"/>
<path d="M0 0 C2.1519437 3.22791555 2.20086443 4.28400809 2 8 C2.66 7.67 3.32 7.34 4 7 C4.33 7.99 4.66 8.98 5 10 C4.01 10.495 4.01 10.495 3 11 C2.34 10.67 1.68 10.34 1 10 C0.67 11.32 0.34 12.64 0 14 C-0.19532961 12.2300132 -0.38098882 10.45895721 -0.5625 8.6875 C-0.66691406 7.70136719 -0.77132812 6.71523437 -0.87890625 5.69921875 C-1 3 -1 3 0 0 Z " fill="#00A3F6" transform="translate(206,86)"/>
<path d="M0 0 C1.65 0 3.3 0 5 0 C4.88590407 1.45922693 4.75834456 2.91740598 4.625 4.375 C4.55539063 5.18710937 4.48578125 5.99921875 4.4140625 6.8359375 C4 9 4 9 2 11 C2.33 8.69 2.66 6.38 3 4 C2.34 4 1.68 4 1 4 C0.67 2.68 0.34 1.36 0 0 Z " fill="#009AD6" transform="translate(183,53)"/>
<path d="M0 0 C2 3 2 3 1.8125 5.5 C1 8 1 8 -2 11 C-2.33 8.03 -2.66 5.06 -3 2 C-2.01 2.495 -2.01 2.495 -1 3 C-0.67 2.01 -0.34 1.02 0 0 Z " fill="#009DF4" transform="translate(336,277)"/>
<path d="M0 0 C0.33 0 0.66 0 1 0 C1.33 2.97 1.66 5.94 2 9 C0.68 9.33 -0.64 9.66 -2 10 C-2.17942163 6.05272412 -2.09350689 3.4019487 0 0 Z " fill="#009CD8" transform="translate(113,275)"/>
<path d="M0 0 C0.99 1.32 1.98 2.64 3 4 C1.68 5.32 0.36 6.64 -1 8 C-1.66666667 6 -2.33333333 4 -3 2 C-2.01 1.34 -1.02 0.68 0 0 Z " fill="#00A3EE" transform="translate(345,265)"/>
<path d="M0 0 C1.20628008 2.33214148 2.1654738 4.49642139 3 7 C2.360625 7.28875 1.72125 7.5775 1.0625 7.875 C-1.15206079 8.82823451 -1.15206079 8.82823451 -2 11 C-2.19622241 6.78121808 -1.80230168 3.82989106 0 0 Z " fill="#009DF0" transform="translate(274,252)"/>
<path d="M0 0 C2.475 0.99 2.475 0.99 5 2 C4.67 3.65 4.34 5.3 4 7 C3.67 6.34 3.34 5.68 3 5 C2.34 5 1.68 5 1 5 C0.67 6.32 0.34 7.64 0 9 C-1.15941038 5.52176885 -0.70820884 3.54104422 0 0 Z " fill="#009DD4" transform="translate(125,234)"/>
<path d="M0 0 C2.4375 0.8125 2.4375 0.8125 5 2 C5.33 2.99 5.66 3.98 6 5 C5.01 6.485 5.01 6.485 4 8 C3.67 7.34 3.34 6.68 3 6 C2.01 6 1.02 6 0 6 C0 4.02 0 2.04 0 0 Z " fill="#009DD4" transform="translate(218,215)"/>
<path d="M0 0 C2 1 2 1 2.875 3.3125 C3 6 3 6 1.0625 8.3125 C0.381875 8.869375 -0.29875 9.42625 -1 10 C-2.46726798 6.18510326 -1.43336419 3.70988378 0 0 Z " fill="#0CA4E7" transform="translate(218,173)"/>
<path d="M0 0 C1.28333842 2.56667684 0.96706094 4.09599258 0.6875 6.9375 C0.60886719 7.81277344 0.53023437 8.68804687 0.44921875 9.58984375 C0 12 0 12 -2 15 C-2.21755666 9.5610835 -2.10428384 5.12919186 0 0 Z " fill="#15A6E3" transform="translate(221,128)"/>
<path d="M0 0 C0.66 0.99 1.32 1.98 2 3 C2.66 2.67 3.32 2.34 4 2 C7 5.75 7 5.75 7 8 C5.68 7.34 4.36 6.68 3 6 C2.34 6.66 1.68 7.32 1 8 C-1.125 3.375 -1.125 3.375 0 0 Z " fill="#029DF2" transform="translate(236,79)"/>
<path d="M0 0 C0.66 0.66 1.32 1.32 2 2 C2.99 2 3.98 2 5 2 C4.34 3.32 3.68 4.64 3 6 C2.34 6 1.68 6 1 6 C0.34 7.32 -0.32 8.64 -1 10 C-2.23076923 4.58461538 -2.23076923 4.58461538 -1.0625 1.625 C-0.5365625 0.820625 -0.5365625 0.820625 0 0 Z " fill="#009FF4" transform="translate(177,68)"/>
<path d="M0 0 C0.99 0.99 1.98 1.98 3 3 C1.25 7.875 1.25 7.875 -1 9 C-1.80967438 6.08517222 -2.21845993 4.53886783 -1.0625 1.6875 C-0.711875 1.130625 -0.36125 0.57375 0 0 Z " fill="#0FA2E4" transform="translate(346,285)"/>
<path d="M0 0 C1.625 1.6875 1.625 1.6875 3 4 C2.1875 6.75 2.1875 6.75 1 9 C0.01 9 -0.98 9 -2 9 C-1.125 1.125 -1.125 1.125 0 0 Z " fill="#00A0D4" transform="translate(277,270)"/>
<path d="M0 0 C2.29013653 3.4352048 2.17842973 4.985331 2 9 C1.01 9 0.02 9 -1 9 C-1 8.34 -1 7.68 -1 7 C-1.66 7.66 -2.32 8.32 -3 9 C-3.33 7.68 -3.66 6.36 -4 5 C-2.68 5 -1.36 5 0 5 C-0.33 4.01 -0.66 3.02 -1 2 C-0.67 1.34 -0.34 0.68 0 0 Z " fill="#00A6F3" transform="translate(340,242)"/>
<path d="M0 0 C0.99 0.33 1.98 0.66 3 1 C3.6875 3.3125 3.6875 3.3125 4 6 C2.5625 7.8125 2.5625 7.8125 1 9 C-1.125 2.25 -1.125 2.25 0 0 Z " fill="#009DD7" transform="translate(325,232)"/>
<path d="M0 0 C0.99 0.66 1.98 1.32 3 2 C2.67 3.65 2.34 5.3 2 7 C1.34 6.67 0.68 6.34 0 6 C-0.66 6.66 -1.32 7.32 -2 8 C-2.66 6.35 -3.32 4.7 -4 3 C-3.01 3 -2.02 3 -1 3 C-0.67 2.01 -0.34 1.02 0 0 Z " fill="#00A2F3" transform="translate(243,230)"/>
<path d="M0 0 C1.9375 0.625 1.9375 0.625 4 2 C4.75 5.125 4.75 5.125 5 8 C4.01 8 3.02 8 2 8 C1.67 6.35 1.34 4.7 1 3 C0.01 3.495 0.01 3.495 -1 4 C-0.67 2.68 -0.34 1.36 0 0 Z " fill="#009FEF" transform="translate(158,213)"/>
<path d="M0 0 C3 2 3 2 3.6875 5.125 C3.790625 6.07375 3.89375 7.0225 4 8 C3.34 8 2.68 8 2 8 C1.67 8.99 1.34 9.98 1 11 C-1.42857143 3.57142857 -1.42857143 3.57142857 0 0 Z " fill="#009FF3" transform="translate(220,190)"/>
<path d="M0 0 C0.144375 0.598125 0.28875 1.19625 0.4375 1.8125 C0.8872439 3.56150404 1.42892341 5.28677023 2 7 C1.34 7.66 0.68 8.32 0 9 C-0.66 9 -1.32 9 -2 9 C-2.125 5.625 -2.125 5.625 -2 2 C-1.34 1.34 -0.68 0.68 0 0 Z " fill="#029BD9" transform="translate(235,95)"/>
<path d="M0 0 C0.99 0.33 1.98 0.66 3 1 C4 4 4 4 3 7 C1.35 7 -0.3 7 -2 7 C-1.34 4.69 -0.68 2.38 0 0 Z " fill="#0098EC" transform="translate(89,302)"/>
<path d="M0 0 C0.33 0 0.66 0 1 0 C1 1.65 1 3.3 1 5 C1.66 5.33 2.32 5.66 3 6 C2.34 7.65 1.68 9.3 1 11 C-0.64284201 8.04288438 -1.6442194 5.37991574 -2 2 C-1.34 1.34 -0.68 0.68 0 0 Z " fill="#00A4F1" transform="translate(305,267)"/>
<path d="M0 0 C1.98 0.495 1.98 0.495 4 1 C3.67 2.98 3.34 4.96 3 7 C1.68 7 0.36 7 -1 7 C-0.67 4.69 -0.34 2.38 0 0 Z " fill="#04A0D2" transform="translate(252,246)"/>
<path d="M0 0 C1.42944945 2.35438733 2.08661261 3.48032433 1.625 6.25 C1.41875 6.8275 1.2125 7.405 1 8 C-0.32 7.67 -1.64 7.34 -3 7 C-1.125 1.125 -1.125 1.125 0 0 Z " fill="#009CD5" transform="translate(77,235)"/>
<path d="M0 0 C1.33333333 2.66666667 2.66666667 5.33333333 4 8 C2.68 8.33 1.36 8.66 0 9 C-1.10844919 5.67465243 -0.84454356 3.37817425 0 0 Z " fill="#0098D5" transform="translate(188,111)"/>
<path d="M0 0 C3 2 3 2 3.6875 4.625 C3.790625 5.40875 3.89375 6.1925 4 7 C3.01 7.495 3.01 7.495 2 8 C1.34 7.67 0.68 7.34 0 7 C-0.33 7.66 -0.66 8.32 -1 9 C-0.67 6.03 -0.34 3.06 0 0 Z " fill="#009AF2" transform="translate(326,290)"/>
<path d="M0 0 C1.32 0.33 2.64 0.66 4 1 C1.525 5.455 1.525 5.455 -1 10 C-1.33 10 -1.66 10 -2 10 C-2.17942163 6.05272412 -2.09350689 3.4019487 0 0 Z " fill="#15A4E1" transform="translate(135,267)"/>
<path d="M0 0 C0.99 0.33 1.98 0.66 3 1 C4.1875 3.5625 4.1875 3.5625 5 6 C4.34 6.66 3.68 7.32 3 8 C2.67 7.34 2.34 6.68 2 6 C1.01 6.495 1.01 6.495 0 7 C-0.93423645 3.98968256 -1.04449911 3.13349732 0 0 Z " fill="#009CF2" transform="translate(288,258)"/>
<path d="M0 0 C1.55693206 2.33539809 2.90200646 4.57968756 4.1875 7.0625 C4.55230469 7.75472656 4.91710937 8.44695312 5.29296875 9.16015625 C5.52628906 9.76730469 5.75960938 10.37445313 6 11 C5.67 11.66 5.34 12.32 5 13 C4.67 11.68 4.34 10.36 4 9 C3.01 9 2.02 9 1 9 C0.67 6.03 0.34 3.06 0 0 Z " fill="#009CD0" transform="translate(311,239)"/>
<path d="M0 0 C3.32901247 2.21934164 3.75023244 3.34683329 5 7 C4.01 7 3.02 7 2 7 C1.34 7.66 0.68 8.32 0 9 C-0.84454356 5.62182575 -1.10844919 3.32534757 0 0 Z " fill="#00A4F5" transform="translate(289,240)"/>
<path d="M0 0 C1.61949011 2.57213134 2.04408751 3.67669159 1.625 6.75 C1.41875 7.4925 1.2125 8.235 1 9 C-0.65 8.01 -2.3 7.02 -4 6 C-3.525625 5.566875 -3.05125 5.13375 -2.5625 4.6875 C-0.76313043 2.97690387 -0.76313043 2.97690387 0 0 Z " fill="#0CA4EE" transform="translate(245,239)"/>
<path d="M0 0 C4.95 0.99 4.95 0.99 10 2 C9.01 2.99 8.02 3.98 7 5 C4.8125 4.6875 4.8125 4.6875 3 4 C3 3.34 3 2.68 3 2 C2.01 1.67 1.02 1.34 0 1 C0 0.67 0 0.34 0 0 Z " fill="#13A4E4" transform="translate(266,224)"/>
<path d="M0 0 C0.66 0.99 1.32 1.98 2 3 C0.02 5.97 0.02 5.97 -2 9 C-3.125 7.25 -3.125 7.25 -4 5 C-3.125 2.75 -3.125 2.75 -2 1 C-1.67 1.33 -1.34 1.66 -1 2 C-0.67 1.34 -0.34 0.68 0 0 Z " fill="#009CF5" transform="translate(260,222)"/>
<path d="M0 0 C0.99 0 1.98 0 3 0 C3 0.99 3 1.98 3 3 C3.66 3 4.32 3 5 3 C4.67 4.32 4.34 5.64 4 7 C3.67 6.34 3.34 5.68 3 5 C2.01 5 1.02 5 0 5 C-0.33 4.01 -0.66 3.02 -1 2 C-0.67 1.34 -0.34 0.68 0 0 Z " fill="#00A2F0" transform="translate(181,54)"/>
<path d="M0 0 C1.32 0.33 2.64 0.66 4 1 C4 2.65 4 4.3 4 6 C1.69 5.67 -0.62 5.34 -3 5 C-2.505 4.54625 -2.01 4.0925 -1.5 3.625 C0.22609337 2.12364481 0.22609337 2.12364481 0 0 Z " fill="#19ACDD" transform="translate(82,303)"/>
<path d="M0 0 C0.66 0.33 1.32 0.66 2 1 C2 3.97 2 6.94 2 10 C0.68 8.68 -0.64 7.36 -2 6 C-1.34 4.02 -0.68 2.04 0 0 Z " fill="#009FD3" transform="translate(70,238)"/>
<path d="M0 0 C2.0625 0.4375 2.0625 0.4375 4 1 C4 3.31 4 5.62 4 8 C2.68 7.67 1.36 7.34 0 7 C-0.38133299 5.0085944 -0.71325582 3.00720923 -1 1 C-0.67 0.67 -0.34 0.34 0 0 Z " fill="#0097CE" transform="translate(290,238)"/>
<path d="M0 0 C0.66 0 1.32 0 2 0 C1.67 2.97 1.34 5.94 1 9 C0.67 8.01 0.34 7.02 0 6 C-0.99 6.33 -1.98 6.66 -3 7 C-2.690625 6.401875 -2.38125 5.80375 -2.0625 5.1875 C-0.89790296 2.91043228 -0.89790296 2.91043228 0 0 Z " fill="#00A5EF" transform="translate(126,239)"/>
<path d="M0 0 C0.66 0.99 1.32 1.98 2 3 C1.54625 3.433125 1.0925 3.86625 0.625 4.3125 C-1.20024334 6.10798342 -1.20024334 6.10798342 -3 9 C-3.89674777 6.48910624 -4.13172674 5.35464891 -3.1875 2.8125 C-2 1 -2 1 0 0 Z " fill="#00A5EF" transform="translate(273,237)"/>
<path d="M0 0 C0.99 0.66 1.98 1.32 3 2 C3.1875 5.125 3.1875 5.125 3 8 C1.02 6.35 -0.96 4.7 -3 3 C-2.01 2.01 -1.02 1.02 0 0 Z " fill="#079FD3" transform="translate(66,235)"/>
<path d="M0 0 C1.65 1.65 3.3 3.3 5 5 C4.01 5.495 4.01 5.495 3 6 C2.01 5.67 1.02 5.34 0 5 C-0.33 6.32 -0.66 7.64 -1 9 C-0.67 6.03 -0.34 3.06 0 0 Z " fill="#009FF2" transform="translate(84,231)"/>
<path d="M0 0 C1.66611905 -0.042721 3.33382885 -0.04063832 5 0 C6 1 6 1 6.0625 4.0625 C6.041875 5.031875 6.02125 6.00125 6 7 C5.34 6.01 4.68 5.02 4 4 C3.01 3.67 2.02 3.34 1 3 C0.67 2.01 0.34 1.02 0 0 Z " fill="#14A1DD" transform="translate(301,227)"/>
<path d="M0 0 C0.99 0.33 1.98 0.66 3 1 C2.34 3.64 1.68 6.28 1 9 C0.34 8.67 -0.32 8.34 -1 8 C-1.125 2.25 -1.125 2.25 0 0 Z " fill="#009BD6" transform="translate(212,194)"/>
<path d="M0 0 C3 4.5 3 4.5 3 8 C2.67 8.99 2.34 9.98 2 11 C-0.67927341 6.98108988 -0.15601248 4.75838077 0 0 Z " fill="#009DD1" transform="translate(208,185)"/>
<path d="M0 0 C2 2 2 2 2 6 C0.35 6.33 -1.3 6.66 -3 7 C-3 6.01 -3 5.02 -3 4 C-2.34 4 -1.68 4 -1 4 C-0.67 2.68 -0.34 1.36 0 0 Z " fill="#0CA3E8" transform="translate(184,125)"/>
<path d="M0 0 C1.9375 0.375 1.9375 0.375 4 1 C4.33 1.66 4.66 2.32 5 3 C4.0625 5.625 4.0625 5.625 3 8 C2.34 7.01 1.68 6.02 1 5 C1.66 5 2.32 5 3 5 C2.01 4.01 1.02 3.02 0 2 C-0.33 2.66 -0.66 3.32 -1 4 C-0.67 2.68 -0.34 1.36 0 0 Z " fill="#00A3F2" transform="translate(230,79)"/>
<path d="M0 0 C0.99 0 1.98 0 3 0 C3.144375 0.7425 3.28875 1.485 3.4375 2.25 C3.90187492 4.52027739 4.41863569 6.75759479 5 9 C3.68 8.67 2.36 8.34 1 8 C1.33 6.35 1.66 4.7 2 3 C1.34 3 0.68 3 0 3 C0 2.01 0 1.02 0 0 Z " fill="#0097D3" transform="translate(238,65)"/>
<path d="M0 0 C1.61949011 2.57213134 2.04408751 3.67669159 1.625 6.75 C1.41875 7.4925 1.2125 8.235 1 9 C0.34 9 -0.32 9 -1 9 C-1.80967438 6.08517222 -2.21845993 4.53886783 -1.0625 1.6875 C-0.711875 1.130625 -0.36125 0.57375 0 0 Z " fill="#0098D1" transform="translate(308,299)"/>
<path d="M0 0 C0.33 0.66 0.66 1.32 1 2 C2.32 1.67 3.64 1.34 5 1 C5 4 5 4 3 7 C1.5 5.75 1.5 5.75 0 4 C0 2.68 0 1.36 0 0 Z " fill="#009AF1" transform="translate(324,281)"/>
<path d="M0 0 C1.33333333 2.66666667 2.66666667 5.33333333 4 8 C1.525 7.01 1.525 7.01 -1 6 C-1.33 6.99 -1.66 7.98 -2 9 C-1.41196203 5.97580475 -0.77321882 2.98241547 0 0 Z " fill="#00A5F4" transform="translate(330,255)"/>
<path d="M0 0 C2.475 0.99 2.475 0.99 5 2 C4.67 3.32 4.34 4.64 4 6 C3.01 6 2.02 6 1 6 C0.67 4.02 0.34 2.04 0 0 Z " fill="#0096D4" transform="translate(85,251)"/>
<path d="M0 0 C0.99 0.33 1.98 0.66 3 1 C3.125 3.875 3.125 3.875 3 7 C2.34 7.66 1.68 8.32 1 9 C0.34 7.35 -0.32 5.7 -1 4 C-0.34 4 0.32 4 1 4 C0.67 2.68 0.34 1.36 0 0 Z " fill="#00A5EE" transform="translate(270,248)"/>
<path d="M0 0 C0.99 0 1.98 0 3 0 C2.67 2.97 2.34 5.94 2 9 C0.4375 7.3125 0.4375 7.3125 -1 5 C-0.6875 2.25 -0.6875 2.25 0 0 Z " fill="#009EF1" transform="translate(143,228)"/>
<path d="M0 0 C0.99 0.33 1.98 0.66 3 1 C3.8125 2.8125 3.8125 2.8125 4 5 C3.0625 7.25 3.0625 7.25 2 9 C-0.29013653 5.5647952 -0.17842973 4.014669 0 0 Z " fill="#009AD6" transform="translate(240,211)"/>
<path d="M0 0 C0.99 0.99 1.98 1.98 3 3 C2.6875 6.1875 2.6875 6.1875 2 9 C1.01 9 0.02 9 -1 9 C-0.67 6.03 -0.34 3.06 0 0 Z " fill="#00A1F1" transform="translate(169,67)"/>
<path d="M0 0 C0.66 0.99 1.32 1.98 2 3 C1.67 3.66 1.34 4.32 1 5 C1.99 5.33 2.98 5.66 4 6 C2.02 6 0.04 6 -2 6 C-2 3 -2 3 0 0 Z " fill="#089EEE" transform="translate(316,303)"/>
<path d="M0 0 C0.33 0 0.66 0 1 0 C1.84888195 5.37625234 2.0024305 9.65370398 1 15 C0.67 15 0.34 15 0 15 C-0.84888195 9.62374766 -1.0024305 5.34629602 0 0 Z " fill="#009EF9" transform="translate(296,287)"/>
<path d="M0 0 C0.33 0.99 0.66 1.98 1 3 C1.66 3 2.32 3 3 3 C3 4.32 3 5.64 3 7 C1.68 6.34 0.36 5.68 -1 5 C-0.67 3.35 -0.34 1.7 0 0 Z " fill="#11A3E8" transform="translate(62,292)"/>
<path d="M0 0 C1.125 1.75 1.125 1.75 2 4 C1.125 6.25 1.125 6.25 0 8 C-0.66 7.67 -1.32 7.34 -2 7 C-2.33 7.33 -2.66 7.66 -3 8 C-3.33 7.01 -3.66 6.02 -4 5 C-3.01 4.67 -2.02 4.34 -1 4 C-0.26676204 1.98491642 -0.26676204 1.98491642 0 0 Z " fill="#00A5F3" transform="translate(83,279)"/>
<path d="M0 0 C1.65 0 3.3 0 5 0 C5.33 1.98 5.66 3.96 6 6 C3.00306862 5.00102287 1.97290587 4.34869747 0 2 C0 1.34 0 0.68 0 0 Z " fill="#00A5DA" transform="translate(319,281)"/>
<path d="M0 0 C1.625 1.5625 1.625 1.5625 3 4 C2.1875 7.75 2.1875 7.75 1 11 C0.67 11 0.34 11 0 11 C-0.19406478 9.35492782 -0.38007935 7.70890406 -0.5625 6.0625 C-0.66691406 5.14597656 -0.77132813 4.22945313 -0.87890625 3.28515625 C-0.91886719 2.53105469 -0.95882813 1.77695312 -1 1 C-0.67 0.67 -0.34 0.34 0 0 Z " fill="#0095D1" transform="translate(295,272)"/>
<path d="M0 0 C0.66 0.99 1.32 1.98 2 3 C1.25 5.625 1.25 5.625 0 8 C-0.99 8.495 -0.99 8.495 -2 9 C-1.125 1.125 -1.125 1.125 0 0 Z " fill="#0099D4" transform="translate(86,274)"/>
<path d="M0 0 C1.32 0 2.64 0 4 0 C3.34 3.3 2.68 6.6 2 10 C1.67 10 1.34 10 1 10 C1.020625 8.906875 1.04125 7.81375 1.0625 6.6875 C1.18544452 3.05615809 1.18544452 3.05615809 0 0 Z " fill="#00A0D1" transform="translate(105,254)"/>
<path d="M0 0 C0.33 0 0.66 0 1 0 C2 6.625 2 6.625 2 10 C1.01 9.67 0.02 9.34 -1 9 C-1.33 9.66 -1.66 10.32 -2 11 C-1.34 7.37 -0.68 3.74 0 0 Z " fill="#009EF6" transform="translate(109,237)"/>
<path d="M0 0 C2.475 0.495 2.475 0.495 5 1 C5 2.32 5 3.64 5 5 C3.68 5 2.36 5 1 5 C0.67 3.35 0.34 1.7 0 0 Z " fill="#0E9EDA" transform="translate(224,233)"/>
<path d="M0 0 C2.0625 0.4375 2.0625 0.4375 4 1 C4 1.99 4 2.98 4 4 C2.35 3.67 0.7 3.34 -1 3 C-1.33 3.66 -1.66 4.32 -2 5 C-1.125 1.125 -1.125 1.125 0 0 Z " fill="#16A5EB" transform="translate(326,229)"/>
<path d="M0 0 C0.26218749 3.14624993 0.24754367 4.61837017 -1.5 7.3125 C-2.2425 8.1478125 -2.2425 8.1478125 -3 9 C-3.66 7.35 -4.32 5.7 -5 4 C-1.125 0 -1.125 0 0 0 Z " fill="#009CF6" transform="translate(218,194)"/>
<path d="M0 0 C0.99 0 1.98 0 3 0 C3.33 0.99 3.66 1.98 4 3 C2.5625 5.1875 2.5625 5.1875 1 7 C0.67 4.69 0.34 2.38 0 0 Z " fill="#0099EE" transform="translate(178,97)"/>
<path d="M0 0 C1.17571451 3.67410785 1.07366746 7.16929183 1 11 C0.01 11.495 0.01 11.495 -1 12 C-1.2226746 10.56465159 -1.42761906 9.12654475 -1.625 7.6875 C-1.74101562 6.88699219 -1.85703125 6.08648437 -1.9765625 5.26171875 C-2 3 -2 3 0 0 Z " fill="#009ECE" transform="translate(215,91)"/>
<path d="M0 0 C1.125 1.75 1.125 1.75 2 4 C1.125 6.25 1.125 6.25 0 8 C-0.99 6.68 -1.98 5.36 -3 4 C-2.01 2.68 -1.02 1.36 0 0 Z " fill="#009CD4" transform="translate(235,74)"/>
<path d="M0 0 C0.33 0 0.66 0 1 0 C1 1.98 1 3.96 1 6 C1.66 6 2.32 6 3 6 C2.67 7.65 2.34 9.3 2 11 C0 9 0 9 -0.1953125 6.8359375 C-0.17210937 6.02382813 -0.14890625 5.21171875 -0.125 4.375 C-0.10695313 3.55773437 -0.08890625 2.74046875 -0.0703125 1.8984375 C-0.04710937 1.27195312 -0.02390625 0.64546875 0 0 Z " fill="#00A2F0" transform="translate(290,286)"/>
<path d="M0 0 C1.5625 1.25 1.5625 1.25 3 3 C2.6875 5.1875 2.6875 5.1875 2 7 C1.01 6.67 0.02 6.34 -1 6 C-1.042721 4.33388095 -1.04063832 2.66617115 -1 1 C-0.67 0.67 -0.34 0.34 0 0 Z " fill="#009BD2" transform="translate(285,288)"/>
<path d="M0 0 C1.5625 1.1875 1.5625 1.1875 3 3 C2.6875 5.6875 2.6875 5.6875 2 8 C0.4375 6.25 0.4375 6.25 -1 4 C-0.6875 1.75 -0.6875 1.75 0 0 Z " fill="#0098D5" transform="translate(333,274)"/>
<path d="M0 0 C0.99 1.32 1.98 2.64 3 4 C1.625 6 1.625 6 0 8 C-0.66 8 -1.32 8 -2 8 C-1.47731534 5.23723823 -0.89130413 2.6739124 0 0 Z " fill="#00A2ED" transform="translate(63,264)"/>
<path d="M0 0 C0.66 0.33 1.32 0.66 2 1 C1.67 2.65 1.34 4.3 1 6 C0.01 6 -0.98 6 -2 6 C-1.34 4.02 -0.68 2.04 0 0 Z " fill="#009BD8" transform="translate(101,262)"/>
<path d="M0 0 C0.99 0 1.98 0 3 0 C3.6875 1.8125 3.6875 1.8125 4 4 C2.5625 5.75 2.5625 5.75 1 7 C-0.0625 4.625 -0.0625 4.625 -1 2 C-0.67 1.34 -0.34 0.68 0 0 Z " fill="#00A5F3" transform="translate(257,234)"/>
<path d="M0 0 C0.99 0 1.98 0 3 0 C3.66 1.32 4.32 2.64 5 4 C4.34 4 3.68 4 3 4 C3 5.65 3 7.3 3 9 C2.67 9 2.34 9 2 9 C1.34 6.03 0.68 3.06 0 0 Z " fill="#03A2F3" transform="translate(67,234)"/>
<path d="M0 0 C1.32 0.33 2.64 0.66 4 1 C4.33 2.65 4.66 4.3 5 6 C4.01 6 3.02 6 2 6 C2.33 5.01 2.66 4.02 3 3 C2.01 3 1.02 3 0 3 C0 2.01 0 1.02 0 0 Z " fill="#0098E7" transform="translate(75,232)"/>
<path d="M0 0 C1.32 0 2.64 0 4 0 C4.66 1.32 5.32 2.64 6 4 C4.35 4 2.7 4 1 4 C0.67 2.68 0.34 1.36 0 0 Z " fill="#0098D8" transform="translate(199,229)"/>
<path d="M0 0 C1.32 0.33 2.64 0.66 4 1 C3.625 3.4375 3.625 3.4375 3 6 C2.01 6.495 2.01 6.495 1 7 C0.67 4.69 0.34 2.38 0 0 Z " fill="#009BD2" transform="translate(157,228)"/>
<path d="M0 0 C0.928125 0.2784375 0.928125 0.2784375 1.875 0.5625 C4.04160178 1.23686176 4.04160178 1.23686176 6 0 C6.33 0.99 6.66 1.98 7 3 C6.34 3.66 5.68 4.32 5 5 C2.525 4.01 2.525 4.01 0 3 C0 2.01 0 1.02 0 0 Z " fill="#039BF3" transform="translate(187,168)"/>
<path d="M0 0 C0.33 1.32 0.66 2.64 1 4 C1.66 4 2.32 4 3 4 C2.67 5.65 2.34 7.3 2 9 C0.4375 7.3125 0.4375 7.3125 -1 5 C-0.6875 2.25 -0.6875 2.25 0 0 Z " fill="#009BF0" transform="translate(196,158)"/>
<path d="M0 0 C0.99 0 1.98 0 3 0 C3 2.64 3 5.28 3 8 C0.9375 6.25 0.9375 6.25 -1 4 C-0.75 1.75 -0.75 1.75 0 0 Z " fill="#00A2F6" transform="translate(195,150)"/>
<path d="M0 0 C0.99 0 1.98 0 3 0 C3.33 0.66 3.66 1.32 4 2 C4.66 1.67 5.32 1.34 6 1 C6.33 2.32 6.66 3.64 7 5 C6.01 4.67 5.02 4.34 4 4 C3.67 4.66 3.34 5.32 3 6 C2.01 4.02 1.02 2.04 0 0 Z " fill="#00A0F3" transform="translate(204,108)"/>
<path d="M0 0 C1.0625 1.8125 1.0625 1.8125 2 4 C1.67 4.99 1.34 5.98 1 7 C0.01 6.67 -0.98 6.34 -2 6 C-1.125 1.125 -1.125 1.125 0 0 Z " fill="#00A0D5" transform="translate(171,89)"/>
<path d="M0 0 C1.5625 1.125 1.5625 1.125 3 3 C2.6875 6.1875 2.6875 6.1875 2 9 C0.4375 7.3125 0.4375 7.3125 -1 5 C-0.6875 2.25 -0.6875 2.25 0 0 Z " fill="#00A5F3" transform="translate(209,76)"/>
<path d="M0 0 C2.0625 2.125 2.0625 2.125 4 5 C3.75 8.3125 3.75 8.3125 3 11 C2.67 11 2.34 11 2 11 C1.690625 10.05125 1.38125 9.1025 1.0625 8.125 C0.12605258 5.13919592 0.12605258 5.13919592 -1 3 C-0.67 2.01 -0.34 1.02 0 0 Z " fill="#00A0F6" transform="translate(214,66)"/>
<path d="M0 0 C0.66 0.99 1.32 1.98 2 3 C1 6 1 6 -1 7 C-1.99 5.35 -2.98 3.7 -4 2 C-3.01 2 -2.02 2 -1 2 C-0.67 1.34 -0.34 0.68 0 0 Z " fill="#00A7F3" transform="translate(214,43)"/>
<path d="M0 0 C2.31 0 4.62 0 7 0 C7.33 0.99 7.66 1.98 8 3 C7.01 4.485 7.01 4.485 6 6 C6 5.01 6 4.02 6 3 C5.34 3 4.68 3 4 3 C4 2.34 4 1.68 4 1 C2.68 0.67 1.36 0.34 0 0 Z " fill="#0FA2ED" transform="translate(195,38)"/>
</svg>
